<?xml version="1.0" encoding="UTF-8" standalone="no"?>
<!-- Uploaded to: SVG Repo, www.svgrepo.com, Generator: SVG Repo Mixer Tools -->

<svg
   fill="#000000"
   width="500"
   height="500"
   viewBox="0 0 20 20"
   enable-background="new 0 0 32 32"
   id="Glyph"
   version="1.1"
   xml:space="preserve"
   xmlns="http://www.w3.org/2000/svg"
   xmlns:svg="http://www.w3.org/2000/svg"><defs
     id="defs1083" /><path
     d="m 20,10 c 0,1.104 -0.896,2 -2,2 H 2 C 0.896,12 0,11.104 0,10 0,8.896 0.896,8 2,8 h 16 c 1.104,0 2,0.896 2,2 z"
     id="XMLID_314_" /><path
     d="m 20,2 c 0,1.104 -0.896,2 -2,2 H 2 C 0.896,4 0,3.104 0,2 0,0.896 0.896,0 2,0 h 16 c 1.104,0 2,0.896 2,2 z"
     id="XMLID_315_" /><path
     d="m 20,18 c 0,1.104 -0.896,2 -2,2 H 2 C 0.896,20 0,19.104 0,18 0,16.896 0.896,16 2,16 h 16 c 1.104,0 2,0.896 2,2 z"
     id="XMLID_316_" /><path
     style="fill:#394249;stroke-width:0.0590404"
     d="M 1.495236,3.8979556 C 0.9645784,3.7538328 0.4222652,3.2792016 0.1817312,2.7483792 0.0061876,2.3609804 0.0067112,1.6378872 0.1828152,1.2491672 0.358722,0.860886 0.8021916,0.4079392 1.195598,0.2147404 l 0.332076,-0.16308 H 10 18.472325 l 0.332076,0.16308 c 0.393406,0.1931988 0.836875,0.6461456 1.012782,1.0344268 0.176653,0.3899264 0.176653,1.1117392 0,1.5016656 -0.175907,0.3882812 -0.619376,0.841228 -1.012782,1.0344268 l -0.332076,0.16308 -8.354244,0.011283 c -6.476435,0.00875 -8.4146178,-0.00511 -8.622845,-0.061667 z"
     id="path2347" /><path
     style="fill:#394249;stroke-width:0.0590404"
     d="m 1.2830436,11.825402 c -0.437782,-0.168359 -0.808124,-0.520354 -1.0373316,-0.98594 -0.2781532,-0.565009 -0.2781532,-1.113915 0,-1.678924 C 0.4786608,8.687352 0.848228,8.340666 1.2998032,8.17171 1.6168844,8.053075 1.7194192,8.05166 10,8.05166 c 8.280581,0 8.383116,0.0014 8.700197,0.12005 0.451575,0.168956 0.821142,0.515642 1.054091,0.988828 0.16738,0.339996 0.194052,0.455378 0.194052,0.839462 0,0.384084 -0.02667,0.499466 -0.194052,0.839462 -0.232949,0.473186 -0.602516,0.819872 -1.054091,0.988828 -0.317239,0.118694 -0.415681,0.120015 -8.717172,0.116973 -8.2196502,-0.003 -8.4026986,-0.0055 -8.6999814,-0.119861 z"
     id="path2349" /><path
     style="fill:#38393d;fill-opacity:1;stroke-width:0.0590404"
     d="M 1.495236,19.897956 C 0.9645784,19.753833 0.4222652,19.279202 0.1817312,18.748379 0.0061876,18.36098 0.0067112,17.637887 0.1828152,17.249167 0.358722,16.860886 0.8021916,16.407939 1.195598,16.21474 L 1.527674,16.05166 H 10 18.472325 l 0.332076,0.16308 c 0.393406,0.193199 0.836875,0.646146 1.012782,1.034427 0.176653,0.389927 0.176653,1.111739 0,1.501666 -0.175907,0.388281 -0.619376,0.841228 -1.012782,1.034427 l -0.332076,0.16308 -8.354244,0.01128 c -6.476435,0.0087 -8.4146178,-0.0051 -8.622845,-0.06167 z"
     id="path2351" /><path
     style="fill:#38393d;fill-opacity:1;stroke-width:0.0590404"
     d="M 1.5177552,19.862182 C 1.114738,19.76619 0.735342,19.466034 0.242934,18.853619 0.14733,18.734714 0.1124892,18.50672 0.1124892,18 c 0,-0.712919 0.00193,-0.717781 0.5146932,-1.297724 0.1217032,-0.137647 0.3778208,-0.333704 0.56915,-0.435682 L 1.544204,16.081181 H 10 18.455796 l 0.351443,0.187317 c 0.379354,0.202194 0.792911,0.618104 0.970885,0.976412 0.156973,0.316024 0.156973,1.194156 0,1.51018 -0.177974,0.358308 -0.591531,0.774218 -0.970885,0.976412 l -0.351443,0.187317 -8.3755,-0.006 c -4.606524,-0.0033 -8.4596676,-0.02609 -8.5625408,-0.05059 z"
     id="path2422" /><path
     style="fill:#38393d;fill-opacity:1;stroke-width:0.0590404"
     d="M 1.3769744,11.821449 C 0.8807732,11.68791 0.2930032,11.037034 0.1319988,10.442804 0.035816,10.087816 0.0999132,9.544254 0.279822,9.189221 0.493102,8.768333 0.7252356,8.519325 1.095566,8.314179 L 1.409594,8.140222 3.5645756,8.102462 c 2.7938984,-0.04895 10.1146664,-0.04851 12.8708484,7.8e-4 2.081211,0.03722 2.163516,0.04307 2.404263,0.170962 0.407424,0.216434 0.649836,0.470263 0.870663,0.911672 0.176681,0.353164 0.208469,0.477304 0.208469,0.814123 0,0.33682 -0.03179,0.46096 -0.208469,0.814124 -0.220577,0.440909 -0.462316,0.69425 -0.870663,0.912451 l -0.249281,0.133204 -8.501845,0.0091 c -5.252158,0.0056 -8.5820154,-0.01252 -8.7115866,-0.04739 z"
     id="path2424" /><path
     style="fill:#38393d;fill-opacity:1;stroke-width:0.0590404"
     d="M 1.5177552,3.862182 C 1.059584,3.7530528 0.5017928,3.2849332 0.2485868,2.797048 0.064538,2.4424168 0.0498888,1.5911632 0.2218756,1.24491 0.3998504,0.8866024 0.8134068,0.4706916 1.1927608,0.268498 L 1.544204,0.0811808 H 10 18.455796 l 0.351443,0.1873172 c 0.379354,0.2021936 0.792911,0.6181044 0.970885,0.976412 0.156973,0.3160244 0.156973,1.1941556 0,1.51018 -0.177974,0.3583076 -0.591531,0.7742184 -0.970885,0.976412 l -0.351443,0.1873172 -8.3755,-0.00604 C 5.473772,3.9094516 1.6206284,3.8866844 1.5177552,3.862182 Z"
     id="path2426" /><path
     style="fill:#38393d;fill-opacity:1;stroke-width:0.0590404"
     d="M 1.5276752,19.863421 C 1.2037524,19.784212 0.8782476,19.578967 0.6110928,19.285475 0.1181296,18.743914 0.1124892,18.729372 0.1124892,18 c 0,-0.738693 0.025292,-0.798345 0.5631844,-1.328305 0.352402,-0.347205 0.543504,-0.495719 0.681016,-0.529249 0.06157,-0.01501 3.9345064,-0.03512 8.6065264,-0.04468 l 8.494582,-0.01738 0.272946,0.132552 c 0.15012,0.0729 0.437617,0.297731 0.638882,0.499617 0.282029,0.282898 0.386947,0.437814 0.457565,0.67561 0.116614,0.392682 0.116614,0.83099 0,1.223672 -0.112371,0.378393 -0.675806,0.979735 -1.1033,1.177526 l -0.279799,0.129457 -8.369648,-0.006 C 5.471138,19.90952 1.6250924,19.88729 1.5276752,19.86346 Z"
     id="path2428" /><path
     style="fill:#38393d;fill-opacity:1;stroke-width:0.0590404"
     d="M 4.420664,3.8610764 C 0.970104,3.8261032 1.2277572,3.8642404 0.6731324,3.3063896 0.2281216,2.858792 0.1425392,2.6432088 0.1428008,1.9704796 0.1429608,1.5591528 0.169302,1.3609396 0.2415884,1.2271272 0.4067268,0.9214332 0.8295916,0.5070592 1.1994788,0.2884716 L 1.5502492,0.0811808 H 10 18.449751 l 0.35077,0.2072908 c 0.370922,0.2191992 0.79435,0.6345912 0.956815,0.9386556 0.137525,0.25739 0.137525,1.2883556 0,1.5457456 -0.162465,0.3040644 -0.585893,0.7194564 -0.956815,0.9386556 l -0.35077,0.2072908 -5.494248,-0.013462 c -3.021837,-0.0074 -6.862514,-0.02733 -8.534839,-0.044281 z"
     id="path2475" /><path
     style="fill:#38393d;fill-opacity:1;stroke-width:0.0590404"
     d="M 1.1558148,11.706692 C 0.826368,11.532833 0.4906992,11.159056 0.2804148,10.731908 0.1112976,10.388382 0.0975512,10.317988 0.1231988,9.926812 0.1693344,9.223146 0.5288544,8.644464 1.1250864,8.314179 L 1.4391144,8.140222 H 9.97048 18.501845 l 0.268683,0.124318 c 0.411152,0.190241 0.681376,0.46374 0.910302,0.921337 0.175628,0.351058 0.208462,0.478236 0.208422,0.807295 -4e-5,0.665733 -0.386289,1.329505 -0.967532,1.662882 L 18.619926,11.82915 10,11.827095 c -8.5104244,-0.002 -8.6227752,-0.0036 -8.8441852,-0.120403 z"
     id="path2477" /><path
     style="fill:#272a31;fill-opacity:1;stroke-width:0.0590404"
     d="M 1.4863732,19.861801 C 1.0201508,19.750909 0.3988156,19.195192 0.1946104,18.706461 0.0497568,18.359777 0.0646128,17.571602 0.2221344,17.246206 0.3866956,16.906267 0.8874588,16.403614 1.2390548,16.225447 l 0.2846952,-0.144266 8.489048,5.52e-4 8.489047,5.56e-4 0.314685,0.180458 c 0.386141,0.221437 0.794407,0.63863 0.960281,0.98128 0.176033,0.363635 0.176033,1.148311 0,1.511946 -0.165874,0.34265 -0.57414,0.759843 -0.960281,0.98128 l -0.314685,0.180458 -8.413284,-0.0055 c -4.627306,-0.003 -8.498291,-0.02571 -8.6021878,-0.05042 z"
     id="path2479" /><path
     style="fill:#272a31;fill-opacity:1;stroke-width:0.0590404"
     d="M 3.5350552,3.861542 1.380074,3.8302584 1.106466,3.6694136 C 0.69195,3.4257336 0.3046712,2.9617384 0.1918384,2.5736068 0.0535348,2.09786 0.1032056,1.4744632 0.3071424,1.1264712 0.4956436,0.8048184 0.9258696,0.4148592 1.3043104,0.2226328 l 0.27848,-0.141452 h 8.4373306 8.437331 l 0.266057,0.148702 c 0.386745,0.216156 0.789855,0.59043 0.974841,0.9051076 0.146984,0.2500328 0.161372,0.3274508 0.160802,0.8652256 -5.92e-4,0.5357932 -0.01555,0.616094 -0.161429,0.8650096 -0.18416,0.3142468 -0.587141,0.6885524 -0.974214,0.9048916 l -0.266057,0.148702 -6.383707,-0.012997 c -3.51104,-0.00715 -7.35345,-0.027074 -8.5386898,-0.04428 z"
     id="path2550" /><path
     style="fill:#272a31;fill-opacity:1;stroke-width:0.0590404"
     d="M 1.1829304,11.73043 C 0.8672444,11.574882 0.4591904,11.122732 0.270394,10.719283 0.1144652,10.386071 0.0986616,10.300449 0.1232512,9.922066 0.1718502,9.174228 0.5696356,8.580886 1.250298,8.240946 l 0.2705236,-0.135106 8.5200324,0.01719 8.520032,0.01719 0.249281,0.133203 c 0.408346,0.218201 0.650086,0.471543 0.870663,0.912452 0.175958,0.351718 0.208379,0.477617 0.207892,0.807295 -9.56e-4,0.649517 -0.350785,1.272354 -0.918676,1.63563 l -0.314928,0.201456 -8.637522,-0.0013 c -7.8958736,-0.0012 -8.6544496,-0.0097 -8.8346656,-0.09848 z"
     id="path2552" /><path
     style="fill:#272a31;fill-opacity:1;stroke-width:0.0590404"
     d="M 5.217712,19.860827 C 3.1070112,19.844014 1.3420804,19.816974 1.2956436,19.800738 1.1685608,19.756304 0.942034,19.570209 0.6006636,19.2298 0.3625588,18.992366 0.2713344,18.847064 0.1945556,18.582954 0.0759552,18.174983 0.1086508,17.556179 0.266368,17.223815 0.4099948,16.921144 0.9388564,16.407487 1.290136,16.22948 l 0.2926544,-0.148299 8.4595276,10e-4 8.459527,0.001 0.413284,0.283083 c 0.683821,0.46839 0.974636,0.959638 0.973841,1.645026 -7.68e-4,0.660157 -0.321911,1.188726 -0.993508,1.635202 l -0.409497,0.272233 -4.715307,-0.01371 c -2.593419,-0.0075 -6.442245,-0.02747 -8.552946,-0.04428 z"
     id="path2554" /><path
     style="fill:#272a31;fill-opacity:1;stroke-width:0.0590404"
     d="m 4.538745,19.861032 c -1.737269,-0.01693 -3.1966402,-0.04406 -3.2430466,-0.06029 -0.046406,-0.01624 -0.1336144,-0.06937 -0.193796,-0.118081 -0.060181,-0.04871 -0.1281132,-0.08856 -0.1509596,-0.08856 -0.069549,0 -0.5921576,-0.602736 -0.6949324,-0.801481 C 0.1090968,18.508516 0.076526,17.823053 0.1911972,17.428598 0.308988,17.023412 0.8097652,16.472902 1.2750208,16.23714 l 0.3077696,-0.155959 h 8.4490136 8.449014 l 0.269206,0.157765 c 0.36248,0.212427 0.853961,0.704895 0.987002,0.988984 0.140349,0.299693 0.186049,0.887013 0.09768,1.255369 -0.0953,0.397271 -0.431426,0.820299 -0.917782,1.155077 l -0.407418,0.280443 -5.406045,-0.01351 c -2.973326,-0.0074 -6.827448,-0.02736 -8.564718,-0.04428 z"
     id="path2556" /><path
     style="fill:#272a31;fill-opacity:1;stroke-width:0.0590404"
     d="M 2.797048,11.773893 1.202952,11.741693 0.9776528,11.569351 C 0.6756768,11.338356 0.3050264,10.810049 0.2023356,10.464252 0.0303216,9.885018 0.2794566,9.053841 0.7534412,8.625624 1.1658124,8.253071 1.4948172,8.122723 2.0617964,8.10727 2.3362956,8.09977 6.17197,8.11457 10.585517,8.14011 c 7.20125,0.04168 8.042881,0.05619 8.202483,0.141356 0.34159,0.18229 0.687457,0.551611 0.876841,0.936305 0.160036,0.32508 0.187871,0.445044 0.182602,0.787001 -0.01034,0.671216 -0.349442,1.255386 -0.953874,1.643249 l -0.28398,0.182229 -7.109223,-0.01208 C 7.590294,11.81157 3.6738008,11.7916 2.797048,11.77389 Z"
     id="path2558" /><path
     style="fill:#272a31;fill-opacity:1;stroke-width:0.0590404"
     d="M 7.549816,3.862788 1.4391144,3.8302584 1.1734316,3.6726092 C 0.8019036,3.452154 0.434584,3.05591 0.2828792,2.7119308 0.1032956,2.3047392 0.1029392,1.6143908 0.2821232,1.2442492 0.4425724,0.9128048 0.9416412,0.4359944 1.3387128,0.2347828 l 0.3031196,-0.153602 h 8.3927636 8.392764 l 0.337755,0.205176 c 0.395778,0.240422 0.859395,0.7155764 0.980118,1.0045092 0.11277,0.2698968 0.11277,1.1483712 0,1.418268 -0.120723,0.2889328 -0.58434,0.7640872 -0.980118,1.0045092 l -0.337755,0.205176 -2.383421,-0.011751 c -1.310881,-0.00646 -5.133237,-0.026389 -8.494122,-0.04428 z"
     id="path2560" /></svg>
