<?xml version="1.0" encoding="UTF-8" standalone="no"?>
<!-- Uploaded to: SVG Repo, www.svgrepo.com, Generator: SVG Repo Mixer Tools -->

<svg
   fill="#000000"
   width="800"
   height="800"
   viewBox="0 0 32 32"
   enable-background="new 0 0 32 32"
   id="Glyph"
   version="1.1"
   xml:space="preserve"
   sodipodi:docname="hamburger-menu.svg"
   inkscape:export-filename="hamburger-menu-red.svg"
   inkscape:export-xdpi="96"
   inkscape:export-ydpi="96"
   xmlns:inkscape="http://www.inkscape.org/namespaces/inkscape"
   xmlns:sodipodi="http://sodipodi.sourceforge.net/DTD/sodipodi-0.dtd"
   xmlns="http://www.w3.org/2000/svg"
   xmlns:svg="http://www.w3.org/2000/svg"><defs
     id="defs8" /><sodipodi:namedview
     id="namedview6"
     pagecolor="#ffffff"
     bordercolor="#000000"
     borderopacity="0.25"
     inkscape:showpageshadow="2"
     inkscape:pageopacity="0.0"
     inkscape:pagecheckerboard="0"
     inkscape:deskcolor="#d1d1d1"
     showgrid="false" /><path
     d="m 26,16 c 0,1.104 -0.896,2 -2,2 H 8 C 6.896,18 6,17.104 6,16 6,14.896 6.896,14 8,14 h 16 c 1.104,0 2,0.896 2,2 z"
     id="XMLID_314_" /><path
     d="m 26,8 c 0,1.104 -0.896,2 -2,2 H 8 C 6.896,10 6,9.104 6,8 6,6.896 6.896,6 8,6 h 16 c 1.104,0 2,0.896 2,2 z"
     id="XMLID_315_" /><path
     d="m 26,24 c 0,1.104 -0.896,2 -2,2 H 8 C 6.896,26 6,25.104 6,24 6,22.896 6.896,22 8,22 h 16 c 1.104,0 2,0.896 2,2 z"
     id="XMLID_316_" /><path
     style="fill:#ec5242;fill-opacity:1;stroke-width:0.0566372"
     d="M 7.463988,9.8863544 C 6.8862824,9.7048896 6.4682324,9.3372396 6.2074968,8.7813456 6.0850176,8.5202172 6.0601768,8.3860824 6.0601768,7.9858408 c 0,-0.4085808 0.023175,-0.5286024 0.1531768,-0.7933012 0.2949284,-0.6005076 0.829596,-1.005616 1.4878212,-1.1272956 0.4678868,-0.086494 16.1297642,-0.086494 16.5976502,0 0.658225,0.1216796 1.192893,0.526788 1.487821,1.1272956 0.130092,0.264882 0.153177,0.3846168 0.153177,0.794492 0,0.430318 -0.02,0.5232384 -0.184619,0.857622 -0.214864,0.4364516 -0.521906,0.7359804 -0.969646,0.9459212 l -0.318301,0.1492484 -8.382301,0.01075 c -6.819852,0.00875 -8.4267884,-0.00322 -8.620968,-0.064219 z"
     id="path183" /><path
     style="fill:#ec5242;fill-opacity:1;stroke-width:0.0566372"
     d="M 7.4095108,17.87283 C 6.9102792,17.715934 6.484298,17.339078 6.2208396,16.821239 6.081874,16.548096 6.0624364,16.446961 6.0630012,16 6.0635692,15.551572 6.0833668,15.45091 6.227618,15.163041 6.4207188,14.777687 6.8343528,14.370815 7.2089356,14.197764 L 7.476106,14.074336 H 16 24.523894 l 0.26717,0.123428 c 0.374583,0.173051 0.788217,0.579923 0.981318,0.965277 0.144486,0.288339 0.163972,0.387799 0.163972,0.836959 0,0.44916 -0.01949,0.54862 -0.163972,0.836959 -0.193101,0.385354 -0.606735,0.792226 -0.981318,0.965277 l -0.26717,0.123428 -8.438938,0.01075 c -6.8304732,0.0087 -8.4840168,-0.0034 -8.6754452,-0.06358 z"
     id="path1795" /><path
     style="fill:#ec5242;fill-opacity:1;stroke-width:0.0566372"
     d="M 7.6176992,25.917706 C 6.9941372,25.779062 6.497834,25.386696 6.2133536,24.80746 6.0832616,24.542578 6.0601768,24.422844 6.0601768,24.012968 c 0,-0.430318 0.020003,-0.523238 0.1846196,-0.857622 0.2148644,-0.436451 0.5219056,-0.73598 0.9696456,-0.945921 L 7.5327432,22.060177 H 16 24.467257 l 0.318301,0.149248 c 0.44774,0.209941 0.754782,0.50947 0.969646,0.945921 0.164616,0.334384 0.184619,0.427304 0.184619,0.857622 0,0.409876 -0.02309,0.52961 -0.153177,0.794492 -0.294928,0.600508 -0.829596,1.005616 -1.487821,1.127296 -0.502356,0.09287 -16.259207,0.07676 -16.6811258,-0.01705 z"
     id="path1797" /><path
     style="fill:#ec5242;fill-opacity:1;stroke-width:0.0566372"
     d="M 7.4410668,9.83337 C 7.0757796,9.734938 6.6636912,9.4233016 6.4192848,9.060662 6.157164,8.6717376 6.0884956,8.4403112 6.0884956,7.945838 6.0884956,7.6194908 6.1182908,7.4912104 6.25992,7.2077856 6.466228,6.7949264 6.8326944,6.4430076 7.2679564,6.239764 L 7.5893804,6.0896764 11.79469,6.042494 c 2.312921,-0.02595 6.097699,-0.02595 8.41062,0 l 4.20531,0.047182 0.321424,0.1500876 c 0.435262,0.2032436 0.801728,0.5551624 1.008036,0.9680216 0.146298,0.2927692 0.171424,0.4070196 0.171424,0.7794916 0,0.3867936 -0.02289,0.4821964 -0.20122,0.8386576 -0.225274,0.4502964 -0.510796,0.7290904 -0.968382,0.9455632 L 24.445952,9.911504 16.074304,9.907684 C 9.5843064,9.9047164 7.6438592,9.8880144 7.4410668,9.8333688 Z"
     id="path1799" /><path
     style="fill:#ec5242;fill-opacity:1;stroke-width:0.0566372"
     d="M 7.46659,17.843013 C 6.9945424,17.730579 6.4670088,17.263652 6.2251384,16.744188 6.0313408,16.32797 6.0330316,15.668415 6.2289744,15.24753 6.4012836,14.877411 6.8775584,14.394591 7.2347796,14.227902 L 7.5031892,14.102655 H 16 24.49681 l 0.268409,0.125247 c 0.326213,0.15222 0.802771,0.614638 0.984337,0.955128 0.1148,0.215286 0.13363,0.330406 0.13363,0.81697 0,0.486564 -0.01883,0.601684 -0.13363,0.81697 -0.181566,0.34049 -0.658124,0.802908 -0.984337,0.955128 l -0.268409,0.125247 -8.425396,-0.0058 c -4.633968,-0.0032 -8.5061388,-0.02503 -8.604824,-0.04854 z"
     id="path1801" /><path
     style="fill:#ec5242;fill-opacity:1;stroke-width:0.0566372"
     d="M 11.497345,25.943211 7.5893804,25.911504 7.2362868,25.748416 C 6.8172968,25.554892 6.4263984,25.162341 6.2277064,24.735572 6.11964,24.503456 6.089482,24.345123 6.0890488,24.00761 6.0885608,23.626074 6.1117244,23.529849 6.289716,23.174065 6.51499,22.723769 6.8005124,22.444975 7.2580984,22.228502 L 7.5540472,22.088496 H 16 24.445952 l 0.29595,0.140006 c 0.457586,0.216473 0.743108,0.495267 0.968382,0.945563 0.17833,0.356461 0.20122,0.451864 0.20122,0.838658 0,0.372472 -0.02513,0.486722 -0.171424,0.779491 -0.300404,0.601164 -0.928002,1.051545 -1.552814,1.114345 -0.472006,0.04744 -8.501702,0.07063 -12.689921,0.03665 z"
     id="path1803" /></svg>
