<?xml version="1.0" encoding="UTF-8" standalone="no"?>
<!-- Uploaded to: SVG Repo, www.svgrepo.com, Generator: SVG Repo Mixer Tools -->

<svg
   fill="#000000"
   width="500"
   height="500"
   viewBox="0 0 20 20"
   enable-background="new 0 0 32 32"
   id="Glyph"
   version="1.1"
   xml:space="preserve"
   xmlns="http://www.w3.org/2000/svg"
   xmlns:svg="http://www.w3.org/2000/svg"><defs
     id="defs1083" /><path
     d="m 20,10 c 0,1.104 -0.896,2 -2,2 H 2 C 0.896,12 0,11.104 0,10 0,8.896 0.896,8 2,8 h 16 c 1.104,0 2,0.896 2,2 z"
     id="XMLID_314_" /><path
     d="m 20,2 c 0,1.104 -0.896,2 -2,2 H 2 C 0.896,4 0,3.104 0,2 0,0.896 0.896,0 2,0 h 16 c 1.104,0 2,0.896 2,2 z"
     id="XMLID_315_" /><path
     d="m 20,18 c 0,1.104 -0.896,2 -2,2 H 2 C 0.896,20 0,19.104 0,18 0,16.896 0.896,16 2,16 h 16 c 1.104,0 2,0.896 2,2 z"
     id="XMLID_316_" /><path
     style="fill:#394249;stroke-width:0.0590404"
     d="M 1.495236,3.8979556 C 0.9645784,3.7538328 0.4222652,3.2792016 0.1817312,2.7483792 0.0061876,2.3609804 0.0067112,1.6378872 0.1828152,1.2491672 0.358722,0.860886 0.8021916,0.4079392 1.195598,0.2147404 l 0.332076,-0.16308 H 10 18.472325 l 0.332076,0.16308 c 0.393406,0.1931988 0.836875,0.6461456 1.012782,1.0344268 0.176653,0.3899264 0.176653,1.1117392 0,1.5016656 -0.175907,0.3882812 -0.619376,0.841228 -1.012782,1.0344268 l -0.332076,0.16308 -8.354244,0.011283 c -6.476435,0.00875 -8.4146178,-0.00511 -8.622845,-0.061667 z"
     id="path2347" /><path
     style="fill:#394249;stroke-width:0.0590404"
     d="m 1.2830436,11.825402 c -0.437782,-0.168359 -0.808124,-0.520354 -1.0373316,-0.98594 -0.2781532,-0.565009 -0.2781532,-1.113915 0,-1.678924 C 0.4786608,8.687352 0.848228,8.340666 1.2998032,8.17171 1.6168844,8.053075 1.7194192,8.05166 10,8.05166 c 8.280581,0 8.383116,0.0014 8.700197,0.12005 0.451575,0.168956 0.821142,0.515642 1.054091,0.988828 0.16738,0.339996 0.194052,0.455378 0.194052,0.839462 0,0.384084 -0.02667,0.499466 -0.194052,0.839462 -0.232949,0.473186 -0.602516,0.819872 -1.054091,0.988828 -0.317239,0.118694 -0.415681,0.120015 -8.717172,0.116973 -8.2196502,-0.003 -8.4026986,-0.0055 -8.6999814,-0.119861 z"
     id="path2349" /><path
     style="fill:#38393d;fill-opacity:1;stroke-width:0.0590404"
     d="M 1.495236,19.897956 C 0.9645784,19.753833 0.4222652,19.279202 0.1817312,18.748379 0.0061876,18.36098 0.0067112,17.637887 0.1828152,17.249167 0.358722,16.860886 0.8021916,16.407939 1.195598,16.21474 L 1.527674,16.05166 H 10 18.472325 l 0.332076,0.16308 c 0.393406,0.193199 0.836875,0.646146 1.012782,1.034427 0.176653,0.389927 0.176653,1.111739 0,1.501666 -0.175907,0.388281 -0.619376,0.841228 -1.012782,1.034427 l -0.332076,0.16308 -8.354244,0.01128 c -6.476435,0.0087 -8.4146178,-0.0051 -8.622845,-0.06167 z"
     id="path2351" /><path
     style="fill:#38393d;fill-opacity:1;stroke-width:0.0590404"
     d="M 1.5177552,19.862182 C 1.114738,19.76619 0.735342,19.466034 0.242934,18.853619 0.14733,18.734714 0.1124892,18.50672 0.1124892,18 c 0,-0.712919 0.00193,-0.717781 0.5146932,-1.297724 0.1217032,-0.137647 0.3778208,-0.333704 0.56915,-0.435682 L 1.544204,16.081181 H 10 18.455796 l 0.351443,0.187317 c 0.379354,0.202194 0.792911,0.618104 0.970885,0.976412 0.156973,0.316024 0.156973,1.194156 0,1.51018 -0.177974,0.358308 -0.591531,0.774218 -0.970885,0.976412 l -0.351443,0.187317 -8.3755,-0.006 c -4.606524,-0.0033 -8.4596676,-0.02609 -8.5625408,-0.05059 z"
     id="path2422" /><path
     style="fill:#38393d;fill-opacity:1;stroke-width:0.0590404"
     d="M 1.3769744,11.821449 C 0.8807732,11.68791 0.2930032,11.037034 0.1319988,10.442804 0.035816,10.087816 0.0999132,9.544254 0.279822,9.189221 0.493102,8.768333 0.7252356,8.519325 1.095566,8.314179 L 1.409594,8.140222 3.5645756,8.102462 c 2.7938984,-0.04895 10.1146664,-0.04851 12.8708484,7.8e-4 2.081211,0.03722 2.163516,0.04307 2.404263,0.170962 0.407424,0.216434 0.649836,0.470263 0.870663,0.911672 0.176681,0.353164 0.208469,0.477304 0.208469,0.814123 0,0.33682 -0.03179,0.46096 -0.208469,0.814124 -0.220577,0.440909 -0.462316,0.69425 -0.870663,0.912451 l -0.249281,0.133204 -8.501845,0.0091 c -5.252158,0.0056 -8.5820154,-0.01252 -8.7115866,-0.04739 z"
     id="path2424" /><path
     style="fill:#38393d;fill-opacity:1;stroke-width:0.0590404"
     d="M 1.5177552,3.862182 C 1.059584,3.7530528 0.5017928,3.2849332 0.2485868,2.797048 0.064538,2.4424168 0.0498888,1.5911632 0.2218756,1.24491 0.3998504,0.8866024 0.8134068,0.4706916 1.1927608,0.268498 L 1.544204,0.0811808 H 10 18.455796 l 0.351443,0.1873172 c 0.379354,0.2021936 0.792911,0.6181044 0.970885,0.976412 0.156973,0.3160244 0.156973,1.1941556 0,1.51018 -0.177974,0.3583076 -0.591531,0.7742184 -0.970885,0.976412 l -0.351443,0.1873172 -8.3755,-0.00604 C 5.473772,3.9094516 1.6206284,3.8866844 1.5177552,3.862182 Z"
     id="path2426" /><path
     style="fill:#38393d;fill-opacity:1;stroke-width:0.0590404"
     d="M 1.5276752,19.863421 C 1.2037524,19.784212 0.8782476,19.578967 0.6110928,19.285475 0.1181296,18.743914 0.1124892,18.729372 0.1124892,18 c 0,-0.738693 0.025292,-0.798345 0.5631844,-1.328305 0.352402,-0.347205 0.543504,-0.495719 0.681016,-0.529249 0.06157,-0.01501 3.9345064,-0.03512 8.6065264,-0.04468 l 8.494582,-0.01738 0.272946,0.132552 c 0.15012,0.0729 0.437617,0.297731 0.638882,0.499617 0.282029,0.282898 0.386947,0.437814 0.457565,0.67561 0.116614,0.392682 0.116614,0.83099 0,1.223672 -0.112371,0.378393 -0.675806,0.979735 -1.1033,1.177526 l -0.279799,0.129457 -8.369648,-0.006 C 5.471138,19.90952 1.6250924,19.88729 1.5276752,19.86346 Z"
     id="path2428" /></svg>
